# xmcd
#
# Track frame offsets:
# 150
# 12276
# 32145
# 52515
# 70717
# 86058
# 106260
# 123756
# 151220
# 170946
# 187638
#
# Disc length: 2938 seconds
#
#
# Revision: 0
# Processed by: cddbd v1.5PL3 Copyright (c) Steve Scherf et al.
# Submitted via: FreeRIP 2.00 
#
DISCID=7a0b780b
DTITLE=Switchback - The Fire that Burns
DYEAR=2002
DGENRE=Folk
TTITLE0=The Farmer Leaves the Dell
TTITLE1=Connemara Man
TTITLE2=The Fire that Burns
TTITLE3=Apple of my Eye
TTITLE4=One Heart
TTITLE5=End Over End
TTITLE6=Genevieve
TTITLE7=In my Glory
TTITLE8=Bamboozled
TTITLE9=Wild Irish Polkas
TTITLE10=The Has-been that Never Was
EXTD=
EXTT0=
EXTT1=
EXTT2=
EXTT3=
EXTT4=
EXTT5=
EXTT6=
EXTT7=
EXTT8=
EXTT9=
EXTT10=
PLAYORDER=
